<svg id="Layer_1" data-name="Layer 1" xmlns="http://www.w3.org/2000/svg" viewBox="0 0 183.07 60.23"><defs><style>.cls-1,.cls-5{fill:#fff;}.cls-1{stroke:#9b9c9e;}.cls-1,.cls-4{stroke-width:0.23px;}.cls-2,.cls-4{fill:#7fcbd4;}.cls-3{fill:#1a171b;}.cls-4{stroke:#7fcbd4;}</style></defs><rect class="cls-1" x="0.12" y="0.12" width="160.25" height="60"/><path class="cls-2" d="M13.06,15.5a2.33,2.33,0,0,1-.46.37,1.64,1.64,0,0,1-.52.24,2.18,2.18,0,0,1-.65.08,2.12,2.12,0,0,1-.57-.07,1.78,1.78,0,0,1-.52-.21,2.41,2.41,0,0,1-.44-.33,1.82,1.82,0,0,1-.39-.6,2.49,2.49,0,0,1-.15-.69c0-.24,0-.59,0-1.06s0-.63,0-.84a4.54,4.54,0,0,1,.06-.57,2,2,0,0,1,.17-.49,1.75,1.75,0,0,1,.32-.44,2.38,2.38,0,0,1,.69-.46,2.32,2.32,0,0,1,.84-.16,2.22,2.22,0,0,1,.9.17,2.52,2.52,0,0,1,.73.52l-.59.6a2.14,2.14,0,0,0-.48-.38,1.33,1.33,0,0,0-.56-.11,1.28,1.28,0,0,0-.48.09,1,1,0,0,0-.38.26.74.74,0,0,0-.17.25,1.08,1.08,0,0,0-.1.33,3.12,3.12,0,0,0-.06.49c0,.18,0,.43,0,.74a8.48,8.48,0,0,0,.06,1.23,1.3,1.3,0,0,0,.28.59,1.16,1.16,0,0,0,.38.26,1.28,1.28,0,0,0,.48.09,1.19,1.19,0,0,0,.56-.12,1.82,1.82,0,0,0,.48-.37Z" transform="translate(-2.15 -2.59)"/><path class="cls-2" d="M18.14,13.23c0,.46,0,.81,0,1.06A2.65,2.65,0,0,1,18,15a1.8,1.8,0,0,1-.38.59,2.22,2.22,0,0,1-3.07,0,1.82,1.82,0,0,1-.39-.6,2.49,2.49,0,0,1-.15-.69c0-.24,0-.59,0-1.06s0-.63,0-.84a4.54,4.54,0,0,1,.06-.57,2,2,0,0,1,.16-.49,2.1,2.1,0,0,1,.33-.44,2.08,2.08,0,0,1,1.53-.62,2.12,2.12,0,0,1,1.54.62,1.64,1.64,0,0,1,.38.6,2.5,2.5,0,0,1,.15.68C18.14,12.42,18.14,12.77,18.14,13.23Zm-.88,0A8.41,8.41,0,0,0,17.2,12a1.17,1.17,0,0,0-.28-.58,1,1,0,0,0-.39-.26,1.2,1.2,0,0,0-1,0,1,1,0,0,0-.39.26,1.21,1.21,0,0,0-.28.58,8.41,8.41,0,0,0-.06,1.22c0,.31,0,.56,0,.74s0,.35.05.49a1.35,1.35,0,0,0,.1.32,1.54,1.54,0,0,0,.18.26,1.16,1.16,0,0,0,.39.26,1.12,1.12,0,0,0,.48.1,1.12,1.12,0,0,0,1.09-.71,2.88,2.88,0,0,0,.1-.55C17.25,13.91,17.26,13.61,17.26,13.23Z" transform="translate(-2.15 -2.59)"/><path class="cls-2" d="M23.75,16.15h-.81l-2.68-4.1v4.1h-.89V10.32h.81l2.69,4.09V10.32h.88Z" transform="translate(-2.15 -2.59)"/><path class="cls-2" d="M29,10.32l-1.93,5.83h-.69l-1.91-5.83h.92l1.33,4.24,1.35-4.24Z" transform="translate(-2.15 -2.59)"/><path class="cls-2" d="M33.71,13.23c0,.46,0,.81,0,1.06a2.64,2.64,0,0,1-.14.69,1.68,1.68,0,0,1-.39.59,2.08,2.08,0,0,1-1.54.62,2.1,2.1,0,0,1-1.53-.61,1.82,1.82,0,0,1-.39-.6,2.49,2.49,0,0,1-.15-.69c0-.24,0-.59,0-1.06s0-.63,0-.84a4.54,4.54,0,0,1,.06-.57,2,2,0,0,1,.17-.49,1.75,1.75,0,0,1,.32-.44,2.21,2.21,0,0,1,3.07,0,1.82,1.82,0,0,1,.39.6,2.49,2.49,0,0,1,.14.68C33.7,12.42,33.71,12.77,33.71,13.23Zm-.89,0A8.41,8.41,0,0,0,32.76,12a1.17,1.17,0,0,0-.28-.58,1,1,0,0,0-.38-.26,1.19,1.19,0,0,0-.49-.1,1.15,1.15,0,0,0-.48.1,1,1,0,0,0-.39.26,1.21,1.21,0,0,0-.28.58,8.41,8.41,0,0,0-.06,1.22c0,.31,0,.56,0,.74a3.12,3.12,0,0,0,.06.49,1.41,1.41,0,0,0,.09.32,1.54,1.54,0,0,0,.18.26,1.16,1.16,0,0,0,.39.26,1.18,1.18,0,0,0,.48.1,1.14,1.14,0,0,0,.87-.36,1,1,0,0,0,.22-.35,2.26,2.26,0,0,0,.1-.55C32.81,13.91,32.82,13.61,32.82,13.23Z" transform="translate(-2.15 -2.59)"/><path class="cls-2" d="M38.44,15.5a2.6,2.6,0,0,1-.45.37,1.7,1.7,0,0,1-.53.24,2.12,2.12,0,0,1-.64.08,2,2,0,0,1-.57-.07,1.58,1.58,0,0,1-.52-.21,1.88,1.88,0,0,1-.44-.33,1.82,1.82,0,0,1-.39-.6,2.49,2.49,0,0,1-.15-.69c0-.24,0-.59,0-1.06s0-.63,0-.84a3.17,3.17,0,0,1,.07-.57,2,2,0,0,1,.16-.49,2.1,2.1,0,0,1,.33-.44,2.14,2.14,0,0,1,.69-.46,2.32,2.32,0,0,1,.84-.16,2.22,2.22,0,0,1,.9.17,2.62,2.62,0,0,1,.72.52l-.58.6a2.42,2.42,0,0,0-.49-.38,1.38,1.38,0,0,0-1,0,1,1,0,0,0-.38.26,1,1,0,0,0-.18.25,1.45,1.45,0,0,0-.1.33,3.12,3.12,0,0,0-.06.49c0,.18,0,.43,0,.74a6.94,6.94,0,0,0,.07,1.23,1.12,1.12,0,0,0,.28.59,1.16,1.16,0,0,0,.38.26,1.28,1.28,0,0,0,.48.09,1.15,1.15,0,0,0,.55-.12,2,2,0,0,0,.49-.37Z" transform="translate(-2.15 -2.59)"/><path class="cls-2" d="M43.84,16.15H42.9L42.5,15H40.2l-.4,1.17h-.94L41,10.32h.71Zm-1.59-1.93-.88-2.58-.91,2.58Z" transform="translate(-2.15 -2.59)"/><path class="cls-2" d="M48.16,11.12H46.55v5h-.88v-5H44.06v-.8h4.1Z" transform="translate(-2.15 -2.59)"/><path class="cls-2" d="M53.06,13.23c0,.46,0,.81,0,1.06a2.29,2.29,0,0,1-.14.69,1.68,1.68,0,0,1-.39.59,2.21,2.21,0,0,1-3.06,0A1.7,1.7,0,0,1,49,15a2.17,2.17,0,0,1-.14-.69c0-.24,0-.59,0-1.06s0-.63,0-.84a3.17,3.17,0,0,1,.07-.57,2,2,0,0,1,.16-.49,2.1,2.1,0,0,1,.33-.44,2.2,2.2,0,0,1,3.06,0,1.82,1.82,0,0,1,.39.6,2.17,2.17,0,0,1,.14.68C53.05,12.42,53.06,12.77,53.06,13.23Zm-.88,0A8,8,0,0,0,52.11,12a1.09,1.09,0,0,0-.28-.58,1,1,0,0,0-.38-.26,1.18,1.18,0,0,0-.48-.1,1.19,1.19,0,0,0-.49.1,1.07,1.07,0,0,0-.39.26,1.12,1.12,0,0,0-.27.58,6.88,6.88,0,0,0-.07,1.22c0,.31,0,.56,0,.74a2.31,2.31,0,0,0,0,.49,1.35,1.35,0,0,0,.1.32,1,1,0,0,0,.17.26,1.16,1.16,0,0,0,.39.26,1.19,1.19,0,0,0,.49.1,1.12,1.12,0,0,0,.86-.36,1,1,0,0,0,.22-.35,2.26,2.26,0,0,0,.1-.55C52.17,13.91,52.18,13.61,52.18,13.23Z" transform="translate(-2.15 -2.59)"/><path class="cls-2" d="M58.53,16.15h-1L56.27,13.7h-1.1v2.45h-.89V10.32h2.26a1.93,1.93,0,0,1,1,.22,1.55,1.55,0,0,1,.64.6,1.72,1.72,0,0,1,.22.88A1.6,1.6,0,0,1,58,13a1.51,1.51,0,0,1-.84.54ZM57.47,12a.86.86,0,0,0-.27-.67,1,1,0,0,0-.72-.24H55.17v1.82h1.31a1,1,0,0,0,.72-.24A.87.87,0,0,0,57.47,12Z" transform="translate(-2.15 -2.59)"/><path class="cls-2" d="M60.45,16.15h-.89V10.32h.89Z" transform="translate(-2.15 -2.59)"/><path class="cls-2" d="M66.17,16.15h-.94L64.83,15h-2.3l-.4,1.17h-.94l2.14-5.83H64Zm-1.59-1.93-.88-2.58-.9,2.58Z" transform="translate(-2.15 -2.59)"/><path class="cls-2" d="M14.69,25.66H13.8V21.77L12.46,24.6h-.65l-1.38-2.83v3.89H9.54V19.83h.89l1.71,3.63,1.66-3.63h.89Z" transform="translate(-2.15 -2.59)"/><path class="cls-2" d="M20.41,25.66h-.94l-.4-1.17h-2.3l-.4,1.17h-.94l2.13-5.83h.71Zm-1.59-1.92-.88-2.59L17,23.74Z" transform="translate(-2.15 -2.59)"/><path class="cls-2" d="M25.4,25.66h-1l-1.23-2.45H22v2.45h-.89V19.83h2.26a2.08,2.08,0,0,1,.95.22,1.49,1.49,0,0,1,.63.61,1.7,1.7,0,0,1,.23.88,1.58,1.58,0,0,1-.32,1,1.65,1.65,0,0,1-.84.55Zm-1.07-4.11a.85.85,0,0,0-.27-.67,1,1,0,0,0-.72-.25H22v1.82h1.3a1,1,0,0,0,.72-.24A.84.84,0,0,0,24.33,21.55Z" transform="translate(-2.15 -2.59)"/><path class="cls-2" d="M27.86,17.94,27,19.27h-.63l.61-1.33Zm-.55,7.72h-.89V19.83h.89Z" transform="translate(-2.15 -2.59)"/><path class="cls-2" d="M33,25.66H32.1l-.4-1.17H29.4L29,25.66h-.94l2.13-5.83h.71Zm-1.59-1.92-.88-2.59-.91,2.59Z" transform="translate(-2.15 -2.59)"/><path class="cls-2" d="M39.81,22.71V23a6.61,6.61,0,0,1,0,.82,2.67,2.67,0,0,1-.16.69,1.73,1.73,0,0,1-.39.6,2,2,0,0,1-1.51.55H35.66V19.83h2.05a2.07,2.07,0,0,1,1.51.55,1.89,1.89,0,0,1,.39.59,2.47,2.47,0,0,1,.16.65,6.21,6.21,0,0,1,0,.79Zm-.89,0c0-.34,0-.59,0-.78a2.09,2.09,0,0,0-.09-.51.82.82,0,0,0-.21-.39,1.25,1.25,0,0,0-1-.4H36.55v4.23h1.07a1.25,1.25,0,0,0,1-.39,1,1,0,0,0,.26-.61A8.66,8.66,0,0,0,38.92,22.71Z" transform="translate(-2.15 -2.59)"/><path class="cls-2" d="M44.76,25.66H41V19.83h3.73v.8H41.92v1.7h2.42v.78H41.92v1.75h2.84Z" transform="translate(-2.15 -2.59)"/><path class="cls-2" d="M51.75,23.39a3.62,3.62,0,0,1-.11,1,1.84,1.84,0,0,1-.4.69,2.54,2.54,0,0,1-.45.36,1.87,1.87,0,0,1-.54.23,2.41,2.41,0,0,1-.6.08,2.62,2.62,0,0,1-.57-.07,2.14,2.14,0,0,1-.52-.22,2,2,0,0,1-.44-.33,1.82,1.82,0,0,1-.39-.6,2.5,2.5,0,0,1-.15-.68c0-.25,0-.6,0-1.06s0-.64,0-.85a5,5,0,0,1,.06-.57,2,2,0,0,1,.17-.48,1.59,1.59,0,0,1,.32-.44,2.07,2.07,0,0,1,1.53-.62,2.42,2.42,0,0,1,.69.08,1.83,1.83,0,0,1,.55.25,3.29,3.29,0,0,1,.52.44l-.6.6a2,2,0,0,0-.55-.44,1.22,1.22,0,0,0-.61-.14,1.29,1.29,0,0,0-.48.1,1.11,1.11,0,0,0-.39.26,1.25,1.25,0,0,0-.28.59,8.32,8.32,0,0,0-.06,1.22A8.32,8.32,0,0,0,48.5,24a1.21,1.21,0,0,0,.28.59,1.12,1.12,0,0,0,.87.35,1.13,1.13,0,0,0,.93-.41,1.29,1.29,0,0,0,.29-.92v-.32H49.65v-.75h2.1Z" transform="translate(-2.15 -2.59)"/><path class="cls-2" d="M57,23.69a2.06,2.06,0,0,1-.27,1.06,1.9,1.9,0,0,1-.75.71,2.34,2.34,0,0,1-1.07.25,2.37,2.37,0,0,1-1.07-.25,1.87,1.87,0,0,1-.74-.71,2,2,0,0,1-.28-1.06V19.83h.89v3.82a1.54,1.54,0,0,0,.14.67,1.05,1.05,0,0,0,.42.44,1.32,1.32,0,0,0,.64.15,1.34,1.34,0,0,0,.64-.15,1.05,1.05,0,0,0,.42-.44,1.41,1.41,0,0,0,.15-.67V19.83H57Z" transform="translate(-2.15 -2.59)"/><path class="cls-2" d="M61.74,25.66H58V24.9l2.7-4.27H58.12v-.8h3.62v.73L59,24.86h2.71Z" transform="translate(-2.15 -2.59)"/><path class="cls-2" d="M68,25.66h-.9V21.77L65.72,24.6h-.66l-1.37-2.83v3.89H62.8V19.83h.89l1.7,3.63,1.66-3.63H68Z" transform="translate(-2.15 -2.59)"/><path class="cls-2" d="M73.66,25.66h-.94l-.4-1.17H70l-.4,1.17h-.94l2.14-5.83h.71Zm-1.59-1.92-.88-2.59-.9,2.59Zm.19-5.8-.91,1.33h-.63l.61-1.33Z" transform="translate(-2.15 -2.59)"/><path class="cls-2" d="M78.79,25.66H78l-2.69-4.1v4.1H74.4V19.83h.82l2.69,4.1v-4.1h.88Z" transform="translate(-2.15 -2.59)"/><path class="cls-3" d="M13.62,31.12a1.79,1.79,0,0,1-.22.9,1.6,1.6,0,0,1-.66.63,2,2,0,0,1-1,.23H10.43v2.29H9.54V29.35h2.22a2.09,2.09,0,0,1,.76.13,1.79,1.79,0,0,1,.6.37,1.64,1.64,0,0,1,.38.56A2,2,0,0,1,13.62,31.12Zm-.88,0a.93.93,0,0,0-.28-.72,1.09,1.09,0,0,0-.75-.26H10.43v1.94h1.28a1.08,1.08,0,0,0,.75-.25A.92.92,0,0,0,12.74,31.12Z" transform="translate(-2.15 -2.59)"/><path class="cls-3" d="M18.9,35.17H18L17.56,34h-2.3l-.4,1.17h-.94l2.14-5.82h.71Zm-1.59-1.92-.88-2.58-.91,2.58Z" transform="translate(-2.15 -2.59)"/><path class="cls-3" d="M23.89,35.17h-1l-1.23-2.45h-1.1v2.45h-.89V29.35H21.9a1.93,1.93,0,0,1,1,.22,1.49,1.49,0,0,1,.64.6,1.72,1.72,0,0,1,.22.88,1.56,1.56,0,0,1-.32,1,1.61,1.61,0,0,1-.84.55Zm-1.06-4.11a.86.86,0,0,0-.27-.67,1,1,0,0,0-.72-.25H20.53V32h1.31a1,1,0,0,0,.72-.25A.84.84,0,0,0,22.83,31.06Z" transform="translate(-2.15 -2.59)"/><path class="cls-3" d="M29.21,35.17h-.94L27.87,34h-2.3l-.4,1.17h-.94l2.13-5.82h.71Zm-1.59-1.92-.88-2.58-.91,2.58Z" transform="translate(-2.15 -2.59)"/><path class="cls-3" d="M35.56,35.17H31.83V29.35h3.73v.79H32.72v1.7h2.42v.79H32.72v1.75h2.84Z" transform="translate(-2.15 -2.59)"/><path class="cls-3" d="M40.38,35.17h-3.7V29.35h.89v5h2.81Z" transform="translate(-2.15 -2.59)"/><path class="cls-3" d="M46.91,30.14H44.07v1.78h2.42v.79H44.07v2.46h-.89V29.35h3.73Z" transform="translate(-2.15 -2.59)"/><path class="cls-3" d="M51.87,32.26c0,.46,0,.81,0,1.06a2.17,2.17,0,0,1-.14.68,1.74,1.74,0,0,1-.38.6,2.14,2.14,0,0,1-1.54.62,2,2,0,0,1-1.53-.62,1.68,1.68,0,0,1-.39-.59,2.49,2.49,0,0,1-.15-.69c0-.24,0-.6,0-1.06s0-.63,0-.84a3.17,3.17,0,0,1,.07-.57,1.63,1.63,0,0,1,.49-.93,2.08,2.08,0,0,1,1.53-.62,2.14,2.14,0,0,1,1.54.62,2,2,0,0,1,.38.6,2.17,2.17,0,0,1,.14.68C51.86,31.45,51.87,31.8,51.87,32.26Zm-.88,0A6.81,6.81,0,0,0,50.92,31a1.09,1.09,0,0,0-.28-.59,1.34,1.34,0,0,0-.38-.26,1.35,1.35,0,0,0-1,0,1.34,1.34,0,0,0-.38.26,1.12,1.12,0,0,0-.28.59,6.88,6.88,0,0,0-.07,1.22c0,.31,0,.56,0,.74a3,3,0,0,0,.05.48,1.45,1.45,0,0,0,.1.33.87.87,0,0,0,.18.26,1,1,0,0,0,.39.26,1.21,1.21,0,0,0,1.34-.26,1,1,0,0,0,.22-.36,2.08,2.08,0,0,0,.1-.54C51,32.94,51,32.64,51,32.26Z" transform="translate(-2.15 -2.59)"/><path class="cls-3" d="M58.24,35.17h-.9V31.28L56,34.12h-.66L54,31.28v3.89h-.89V29.35H54L55.68,33l1.66-3.62h.9Z" transform="translate(-2.15 -2.59)"/><path class="cls-3" d="M63.39,35.17H59.66V29.35h3.73v.79H60.55v1.7H63v.79H60.55v1.75h2.84Z" transform="translate(-2.15 -2.59)"/><path class="cls-3" d="M68.9,35.17h-.81l-2.69-4.1v4.1h-.89V29.35h.82L68,33.44V29.35h.88Z" transform="translate(-2.15 -2.59)"/><path class="cls-3" d="M73.92,30.14h-1.6v5h-.89v-5h-1.6v-.79h4.09Z" transform="translate(-2.15 -2.59)"/><path class="cls-3" d="M78.82,32.26c0,.46,0,.81,0,1.06a2.5,2.5,0,0,1-.15.68,1.74,1.74,0,0,1-.38.6,2.12,2.12,0,0,1-1.54.62,2,2,0,0,1-1.53-.62,1.68,1.68,0,0,1-.39-.59,2.49,2.49,0,0,1-.15-.69c0-.24,0-.6,0-1.06s0-.63,0-.84a4.54,4.54,0,0,1,.06-.57,1.63,1.63,0,0,1,.49-.93,2.08,2.08,0,0,1,1.53-.62,2.12,2.12,0,0,1,1.54.62,1.78,1.78,0,0,1,.38.6,2.5,2.5,0,0,1,.15.68C78.81,31.45,78.82,31.8,78.82,32.26Zm-.88,0A6.81,6.81,0,0,0,77.87,31a1.15,1.15,0,0,0-.27-.59,1.26,1.26,0,0,0-.39-.26,1.35,1.35,0,0,0-1,0,1.34,1.34,0,0,0-.38.26,1.3,1.3,0,0,0-.28.59,8,8,0,0,0-.07,1.22c0,.31,0,.56,0,.74a4.77,4.77,0,0,0,0,.48,1.45,1.45,0,0,0,.1.33,1.54,1.54,0,0,0,.18.26,1.16,1.16,0,0,0,.39.26,1.12,1.12,0,0,0,.48.1,1.15,1.15,0,0,0,.87-.36,1.17,1.17,0,0,0,.21-.36,2,2,0,0,0,.11-.54C77.93,32.94,77.94,32.64,77.94,32.26Z" transform="translate(-2.15 -2.59)"/><path class="cls-3" d="M86.07,32.22v.29c0,.32,0,.59,0,.83a2.9,2.9,0,0,1-.17.69,1.94,1.94,0,0,1-.39.6,2.05,2.05,0,0,1-1.51.54h-2V29.35h2a2,2,0,0,1,1.51.55,1.74,1.74,0,0,1,.39.58,2.67,2.67,0,0,1,.17.66c0,.22,0,.48,0,.79Zm-.88,0c0-.33,0-.59,0-.77a2.7,2.7,0,0,0-.08-.52,1.12,1.12,0,0,0-.21-.39,1.29,1.29,0,0,0-1-.4H82.82v4.24h1.07a1.28,1.28,0,0,0,1-.39,1.14,1.14,0,0,0,.26-.62A10.54,10.54,0,0,0,85.19,32.22Z" transform="translate(-2.15 -2.59)"/><path class="cls-3" d="M91,35.17H87.29V29.35H91v.79H88.19v1.7h2.42v.79H88.19v1.75H91Z" transform="translate(-2.15 -2.59)"/><path class="cls-3" d="M97.73,35.17H94V29.35h.89v5h2.81Z" transform="translate(-2.15 -2.59)"/><path class="cls-3" d="M102.94,35.17H102L101.6,34H99.3l-.4,1.17H98l2.13-5.82h.71Zm-1.59-1.92-.88-2.58-.91,2.58Z" transform="translate(-2.15 -2.59)"/><path class="cls-3" d="M10.43,44.69H9.54V38.86h.89Z" transform="translate(-2.15 -2.59)"/><path class="cls-3" d="M16.26,44.69h-.81l-2.69-4.1v4.1h-.89V38.86h.81L15.38,43V38.86h.88Z" transform="translate(-2.15 -2.59)"/><path class="cls-3" d="M21.51,38.86l-1.93,5.83h-.69L17,38.86h.92l1.34,4.24,1.34-4.24Z" transform="translate(-2.15 -2.59)"/><path class="cls-3" d="M26,44.69H22.23V38.86H26v.8H23.12v1.7h2.42v.78H23.12v1.75H26Z" transform="translate(-2.15 -2.59)"/><path class="cls-3" d="M30.73,43a1.47,1.47,0,0,1-.16.7,1.45,1.45,0,0,1-.43.55,1.93,1.93,0,0,1-.67.34,2.75,2.75,0,0,1-.84.12,3.41,3.41,0,0,1-1.16-.18,2.47,2.47,0,0,1-.9-.59l.59-.59a1.7,1.7,0,0,0,.43.33,2,2,0,0,0,.5.18,3.24,3.24,0,0,0,.56,0,1.51,1.51,0,0,0,.88-.23.87.87,0,0,0,.09-1.26.63.63,0,0,0-.24-.16A1.5,1.5,0,0,0,29,42.2l-.69-.1a1.9,1.9,0,0,1-1.11-.47,1.44,1.44,0,0,1-.42-1.11,1.76,1.76,0,0,1,.23-.89,1.59,1.59,0,0,1,.68-.6,2.37,2.37,0,0,1,1-.22,3.12,3.12,0,0,1,1,.16,2.43,2.43,0,0,1,.79.51L30,40a1.33,1.33,0,0,0-.38-.27,1.48,1.48,0,0,0-.42-.14,2.29,2.29,0,0,0-.47,0,1.26,1.26,0,0,0-.57.11,1,1,0,0,0-.37.32.94.94,0,0,0-.12.47.67.67,0,0,0,.22.54,1,1,0,0,0,.28.17,1.56,1.56,0,0,0,.37.1l.66.1a2.9,2.9,0,0,1,.66.16,1.43,1.43,0,0,1,.43.27A1.51,1.51,0,0,1,30.73,43Z" transform="translate(-2.15 -2.59)"/><path class="cls-3" d="M35.4,39.66H33.8v5h-.88v-5H31.31v-.8H35.4Z" transform="translate(-2.15 -2.59)"/><path class="cls-3" d="M37.22,44.69h-.9V38.86h.9Z" transform="translate(-2.15 -2.59)"/><path class="cls-3" d="M42.64,42.42a3.26,3.26,0,0,1-.12,1,1.79,1.79,0,0,1-.4.69,2,2,0,0,1-.45.36,1.94,1.94,0,0,1-.53.23,2.47,2.47,0,0,1-.6.08,2.71,2.71,0,0,1-.58-.07,1.92,1.92,0,0,1-.51-.22,1.88,1.88,0,0,1-.44-.33,1.85,1.85,0,0,1-.4-.6,2.49,2.49,0,0,1-.14-.68c0-.25,0-.6,0-1.06s0-.64,0-.85a3.17,3.17,0,0,1,.07-.57,1.72,1.72,0,0,1,.49-.93,2.08,2.08,0,0,1,1.53-.62,2.33,2.33,0,0,1,.68.09,1.88,1.88,0,0,1,.56.25,3.81,3.81,0,0,1,.52.44l-.6.6a2.72,2.72,0,0,0-.55-.45,1.28,1.28,0,0,0-.61-.13,1.19,1.19,0,0,0-.49.1,1,1,0,0,0-.38.26,1.09,1.09,0,0,0-.28.59,6.81,6.81,0,0,0-.07,1.22A6.81,6.81,0,0,0,39.39,43a1.09,1.09,0,0,0,.28.59,1.15,1.15,0,0,0,.87.35,1.19,1.19,0,0,0,.93-.41,1.33,1.33,0,0,0,.28-.92v-.32H40.54v-.75h2.1Z" transform="translate(-2.15 -2.59)"/><path class="cls-3" d="M48.1,44.69h-.94l-.4-1.17h-2.3l-.4,1.17h-.94l2.14-5.83H46Zm-1.58-1.92-.89-2.59-.9,2.59Z" transform="translate(-2.15 -2.59)"/><path class="cls-3" d="M52.36,44.05a3.24,3.24,0,0,1-.46.37,2.32,2.32,0,0,1-.53.24,2.43,2.43,0,0,1-.64.08,2.62,2.62,0,0,1-.57-.07,2.14,2.14,0,0,1-.52-.22,2.41,2.41,0,0,1-.44-.33,1.82,1.82,0,0,1-.39-.6,2.5,2.5,0,0,1-.15-.68c0-.25,0-.6,0-1.06s0-.64,0-.85a4.54,4.54,0,0,1,.06-.57,2,2,0,0,1,.17-.48,1.63,1.63,0,0,1,.32-.45,2.14,2.14,0,0,1,.69-.46,2.32,2.32,0,0,1,.84-.16,2.06,2.06,0,0,1,.9.18,2.3,2.3,0,0,1,.73.52l-.59.59a1.82,1.82,0,0,0-.48-.37,1.19,1.19,0,0,0-.56-.12,1.28,1.28,0,0,0-.48.09,1,1,0,0,0-.38.26,1.19,1.19,0,0,0-.18.25,1.64,1.64,0,0,0-.1.33c0,.14,0,.3-.05.49s0,.43,0,.75A8.32,8.32,0,0,0,49.59,43a1.25,1.25,0,0,0,.28.59,1.16,1.16,0,0,0,.38.26,1.28,1.28,0,0,0,.48.09,1.33,1.33,0,0,0,.56-.11,2.14,2.14,0,0,0,.48-.38Z" transform="translate(-2.15 -2.59)"/><path class="cls-3" d="M54.35,44.69h-.89V38.86h.89Z" transform="translate(-2.15 -2.59)"/><path class="cls-3" d="M59.77,41.77c0,.47,0,.82,0,1.06a2.65,2.65,0,0,1-.15.69,1.65,1.65,0,0,1-.38.59,2.2,2.2,0,0,1-3.07,0,1.82,1.82,0,0,1-.39-.6,2.5,2.5,0,0,1-.15-.68c0-.25,0-.6,0-1.06s0-.64,0-.85a4.54,4.54,0,0,1,.06-.57,2,2,0,0,1,.17-.48,1.63,1.63,0,0,1,.32-.45,2.1,2.1,0,0,1,1.53-.62,2.12,2.12,0,0,1,1.54.62,1.82,1.82,0,0,1,.39.6,2.49,2.49,0,0,1,.14.69Q59.77,41.08,59.77,41.77Zm-.89,0a8.58,8.58,0,0,0-.06-1.23,1.21,1.21,0,0,0-.28-.58,1,1,0,0,0-.39-.26,1.2,1.2,0,0,0-1,0,1,1,0,0,0-.39.26,1.25,1.25,0,0,0-.28.59,8.32,8.32,0,0,0-.06,1.22c0,.3,0,.55,0,.74a3.14,3.14,0,0,0,.06.48,1,1,0,0,0,.09.32,1.22,1.22,0,0,0,.18.26,1.16,1.16,0,0,0,.39.26,1.12,1.12,0,0,0,.48.1,1.12,1.12,0,0,0,1.09-.71,2.26,2.26,0,0,0,.1-.55C58.87,42.46,58.88,42.15,58.88,41.78ZM58.79,37l-.91,1.33h-.63L57.86,37Z" transform="translate(-2.15 -2.59)"/><path class="cls-3" d="M65.38,44.69h-.81l-2.69-4.1v4.1H61V38.86h.81L64.49,43V38.86h.89Z" transform="translate(-2.15 -2.59)"/><path class="cls-3" d="M72.21,44.05a3.16,3.16,0,0,1-.45.37,2.32,2.32,0,0,1-.53.24,2.49,2.49,0,0,1-.64.08,2.71,2.71,0,0,1-.58-.07,1.92,1.92,0,0,1-.51-.22,2.11,2.11,0,0,1-.44-.33,1.67,1.67,0,0,1-.39-.6,2.5,2.5,0,0,1-.15-.68c0-.25,0-.6,0-1.06s0-.64,0-.85a3.17,3.17,0,0,1,.07-.57,1.72,1.72,0,0,1,.49-.93,2.14,2.14,0,0,1,.69-.46,2.32,2.32,0,0,1,.84-.16,2.06,2.06,0,0,1,.9.18,2.26,2.26,0,0,1,.72.52l-.58.59a2,2,0,0,0-.49-.37,1.15,1.15,0,0,0-.55-.12,1.28,1.28,0,0,0-.48.09,1.07,1.07,0,0,0-.39.26,1.59,1.59,0,0,0-.17.25,1.64,1.64,0,0,0-.1.33,2.31,2.31,0,0,0,0,.49c0,.19,0,.43,0,.75A6.81,6.81,0,0,0,69.45,43a1.15,1.15,0,0,0,.27.59,1.21,1.21,0,0,0,.39.26,1.38,1.38,0,0,0,1,0,2.42,2.42,0,0,0,.49-.38Z" transform="translate(-2.15 -2.59)"/><path class="cls-3" d="M74.21,44.69h-.9V38.86h.9Z" transform="translate(-2.15 -2.59)"/><path class="cls-3" d="M79.36,44.69H75.64V38.86h3.72v.8H76.53v1.7H79v.78H76.53v1.75h2.83Z" transform="translate(-2.15 -2.59)"/><path class="cls-3" d="M84.88,44.69h-.81l-2.69-4.1v4.1h-.89V38.86h.81L84,43V38.86h.88Z" transform="translate(-2.15 -2.59)"/><path class="cls-3" d="M89.9,39.66H88.29v5h-.88v-5H85.8v-.8h4.1Z" transform="translate(-2.15 -2.59)"/><path class="cls-3" d="M92.25,37l-.91,1.33h-.62L91.33,37Zm-.54,7.72h-.89V38.86h.89Z" transform="translate(-2.15 -2.59)"/><path class="cls-3" d="M96.87,39.66H94v1.77h2.42v.8H94v2.46h-.89V38.86h3.73Z" transform="translate(-2.15 -2.59)"/><path class="cls-3" d="M98.74,44.69h-.9V38.86h.9Z" transform="translate(-2.15 -2.59)"/><path class="cls-3" d="M103.68,44.05a3.16,3.16,0,0,1-.45.37,2.32,2.32,0,0,1-.53.24,2.49,2.49,0,0,1-.64.08,2.63,2.63,0,0,1-.58-.07,1.92,1.92,0,0,1-.51-.22,2.11,2.11,0,0,1-.44-.33,1.82,1.82,0,0,1-.39-.6,2.5,2.5,0,0,1-.15-.68c0-.25,0-.6,0-1.06s0-.64,0-.85a4.44,4.44,0,0,1,.07-.57,1.72,1.72,0,0,1,.49-.93,2.14,2.14,0,0,1,.69-.46,2.32,2.32,0,0,1,.84-.16,2.06,2.06,0,0,1,.9.18,2.26,2.26,0,0,1,.72.52l-.58.59a2,2,0,0,0-.49-.37,1.15,1.15,0,0,0-.55-.12,1.28,1.28,0,0,0-.48.09,1.07,1.07,0,0,0-.39.26,1.59,1.59,0,0,0-.17.25,1.64,1.64,0,0,0-.1.33,2.31,2.31,0,0,0,0,.49c0,.19,0,.43,0,.75a6.81,6.81,0,0,0,.07,1.22,1.15,1.15,0,0,0,.27.59,1.21,1.21,0,0,0,.39.26,1.38,1.38,0,0,0,1,0,2.42,2.42,0,0,0,.49-.38Z" transform="translate(-2.15 -2.59)"/><path class="cls-3" d="M109.08,44.69h-.94l-.4-1.17h-2.3l-.4,1.17h-.94l2.13-5.83h.71Zm-1.59-1.92-.88-2.59-.91,2.59Z" transform="translate(-2.15 -2.59)"/><path class="cls-3" d="M115.85,41.74V42a6.61,6.61,0,0,1,0,.82,2.49,2.49,0,0,1-.17.69,1.58,1.58,0,0,1-.38.6,2,2,0,0,1-1.51.55h-2V38.86h2a2,2,0,0,1,1.51.55,1.67,1.67,0,0,1,.38.58,2.3,2.3,0,0,1,.17.66,6.21,6.21,0,0,1,0,.79Zm-.89,0c0-.34,0-.6,0-.78a2.09,2.09,0,0,0-.09-.51,1,1,0,0,0-.21-.4,1.28,1.28,0,0,0-1-.39h-1.07v4.23h1.07a1.27,1.27,0,0,0,1-.39,1.07,1.07,0,0,0,.26-.62A8.4,8.4,0,0,0,115,41.74Z" transform="translate(-2.15 -2.59)"/><path class="cls-3" d="M120.79,44.69h-3.72V38.86h3.72v.8H118v1.7h2.42v.78H118v1.75h2.83Z" transform="translate(-2.15 -2.59)"/><path class="cls-3" d="M13.27,54.2H9.54V48.38h3.73v.79H10.43v1.7h2.43v.79H10.43v1.75h2.84Z" transform="translate(-2.15 -2.59)"/><path class="cls-3" d="M18.29,54.2h-1L16,52,14.73,54.2h-1l1.8-3-1.68-2.83h1L16,50.46l1.15-2.08h1l-1.69,2.83Z" transform="translate(-2.15 -2.59)"/><path class="cls-3" d="M22.56,53.56a2.76,2.76,0,0,1-.46.37,1.64,1.64,0,0,1-.52.24,2.57,2.57,0,0,1-.65.08,2.12,2.12,0,0,1-.57-.07,2.57,2.57,0,0,1-.52-.21,2.46,2.46,0,0,1-.44-.34A1.82,1.82,0,0,1,19,53a2.34,2.34,0,0,1-.15-.68c0-.25,0-.6,0-1.06s0-.64,0-.84a4.54,4.54,0,0,1,.06-.57,1.89,1.89,0,0,1,.17-.49A1.59,1.59,0,0,1,19.4,49a2.13,2.13,0,0,1,.7-.46,2,2,0,0,1,.83-.16,2.22,2.22,0,0,1,.9.17,2.34,2.34,0,0,1,.73.52l-.59.6a1.89,1.89,0,0,0-.48-.38,1.19,1.19,0,0,0-.56-.12,1.29,1.29,0,0,0-.48.1,1.09,1.09,0,0,0-.38.25,1.35,1.35,0,0,0-.18.26,2.49,2.49,0,0,0-.1.32c0,.14,0,.3-.05.49s0,.44,0,.75a8.58,8.58,0,0,0,.06,1.23,1.21,1.21,0,0,0,.28.58,1.12,1.12,0,0,0,.38.26,1.28,1.28,0,0,0,.48.09,1.19,1.19,0,0,0,.56-.11A1.89,1.89,0,0,0,22,53Z" transform="translate(-2.15 -2.59)"/><path class="cls-3" d="M27.39,54.2H23.66V48.38h3.73v.79H24.55v1.7H27v.79H24.55v1.75h2.84Z" transform="translate(-2.15 -2.59)"/><path class="cls-3" d="M32.21,54.2h-3.7V48.38h.89v5h2.81Z" transform="translate(-2.15 -2.59)"/><path class="cls-3" d="M36.86,54.2H33.13V48.38h3.73v.79H34v1.7h2.42v.79H34v1.75h2.84Z" transform="translate(-2.15 -2.59)"/><path class="cls-3" d="M42.37,54.2h-.81l-2.69-4.1v4.1H38V48.38h.82l2.69,4.09V48.38h.88Z" transform="translate(-2.15 -2.59)"/><path class="cls-3" d="M47.32,53.56a3.16,3.16,0,0,1-.45.37,1.7,1.7,0,0,1-.53.24,2.49,2.49,0,0,1-.64.08,2.07,2.07,0,0,1-.57-.07,2.36,2.36,0,0,1-.52-.21,1.91,1.91,0,0,1-.44-.34,1.82,1.82,0,0,1-.39-.6,2.34,2.34,0,0,1-.15-.68c0-.25,0-.6,0-1.06s0-.64,0-.84a3.17,3.17,0,0,1,.07-.57,1.63,1.63,0,0,1,.49-.93,2,2,0,0,1,.69-.46,2.13,2.13,0,0,1,.84-.16,2.22,2.22,0,0,1,.9.17,2.43,2.43,0,0,1,.72.52l-.58.6a2.1,2.1,0,0,0-.49-.38,1.15,1.15,0,0,0-.55-.12,1.29,1.29,0,0,0-.48.1,1,1,0,0,0-.56.51,1.52,1.52,0,0,0-.1.32,3.12,3.12,0,0,0-.06.49c0,.19,0,.44,0,.75a7,7,0,0,0,.07,1.23,1.06,1.06,0,0,0,.28.58,1,1,0,0,0,.38.26,1.28,1.28,0,0,0,.48.09,1.15,1.15,0,0,0,.55-.11,2.1,2.1,0,0,0,.49-.38Z" transform="translate(-2.15 -2.59)"/><path class="cls-3" d="M49.32,54.2h-.9V48.38h.9Z" transform="translate(-2.15 -2.59)"/><path class="cls-3" d="M55,54.2H54.1L53.7,53H51.4L51,54.2h-.94l2.14-5.82h.71Zm-1.59-1.92-.88-2.58-.91,2.58Z" transform="translate(-2.15 -2.59)"/><rect class="cls-4" x="160.37" y="0.12" width="22.58" height="60"/><path class="cls-5" d="M178.66,36.66V40h-6.49l3.34,1.92V44L172.17,46h6.49v3.33H165.11V46l6-3.05-6-3V36.66Z" transform="translate(-2.15 -2.59)"/><path class="cls-5" d="M178.66,25.62v3h-.84a3.24,3.24,0,0,1,1,2.36,3.07,3.07,0,0,1-2.89,3.35,17.83,17.83,0,0,1-2.34.1,17.63,17.63,0,0,1-2.34-.1A3.08,3.08,0,0,1,168.3,31a3.08,3.08,0,0,1,.86-2.28h-4V25.62Zm-5.12,3.12a5.09,5.09,0,0,0-1.77.21,1.23,1.23,0,0,0,0,2.17,7.56,7.56,0,0,0,3.54,0,1.24,1.24,0,0,0,0-2.17A5.09,5.09,0,0,0,173.54,28.74Z" transform="translate(-2.15 -2.59)"/><path class="cls-5" d="M172.68,13.21a10,10,0,0,1,2.68.29,4.15,4.15,0,0,1,1.85,1.05,5.12,5.12,0,0,1,1.56,3.84,5.14,5.14,0,0,1-1.52,3.77,4.45,4.45,0,0,1-2.46,1.21,26.54,26.54,0,0,1-5.82,0,4.42,4.42,0,0,1-2.45-1.21A5.11,5.11,0,0,1,165,18.39a6.45,6.45,0,0,1,.37-2.34,5.81,5.81,0,0,1,1.31-1.85l2.26,2.27a4.48,4.48,0,0,0-.72.87,2,2,0,0,0-.25,1.05,1.56,1.56,0,0,0,.59,1.31c.43.33,1.54.5,3.33.5s2.92-.17,3.35-.5a1.55,1.55,0,0,0,.57-1.31,1.79,1.79,0,0,0-.52-1.36,2.07,2.07,0,0,0-1.5-.51h-.15v1.87h-2.78V13.21Z" transform="translate(-2.15 -2.59)"/></svg>