<?xml version="1.0" encoding="utf-8"?>
<!-- Generator: Adobe Illustrator 26.0.1, SVG Export Plug-In . SVG Version: 6.00 Build 0)  -->
<svg version="1.1" id="Layer_1" xmlns="http://www.w3.org/2000/svg" xmlns:xlink="http://www.w3.org/1999/xlink" x="0px" y="0px"
	 viewBox="0 0 164.4 63.6" style="enable-background:new 0 0 164.4 63.6;" xml:space="preserve">
<style type="text/css">
	.st0{fill:#1A171B;}
	.st1{fill:#82CAD1;}
</style>
<g>
	<g>
		<path class="st0" d="M6.1,51.2H5.3v-6.9h0.8V51.2z"/>
		<path class="st0" d="M13,44.2h0.7l2,5.5l-0.1,0.1v-5.6h0.8v6.9h-0.7l-2-5.4l0.1-0.1v5.5H13V44.2z"/>
		<path class="st0" d="M23.2,44.2h0.7l2,5.5l-0.1,0.1v-5.6h0.8v6.9h-0.7l-2-5.4l0.1-0.1v5.5h-0.8V44.2z"/>
		<path class="st0" d="M34.2,51c-0.3-0.1-0.5-0.3-0.6-0.6s-0.2-0.6-0.2-0.9v-3.6c0-0.4,0.1-0.7,0.2-0.9c0.1-0.3,0.3-0.5,0.6-0.6
			c0.3-0.1,0.6-0.2,0.9-0.2s0.7,0.1,0.9,0.2c0.3,0.1,0.5,0.3,0.6,0.6c0.1,0.3,0.2,0.6,0.2,0.9v3.6c0,0.4-0.1,0.7-0.2,0.9
			c-0.1,0.3-0.3,0.5-0.6,0.6c-0.3,0.1-0.6,0.2-0.9,0.2S34.4,51.2,34.2,51z M35.6,50.3c0.1-0.1,0.2-0.2,0.3-0.3
			c0.1-0.1,0.1-0.3,0.1-0.5v-3.7c0-0.2,0-0.4-0.1-0.5c-0.1-0.1-0.2-0.2-0.3-0.3c-0.1-0.1-0.3-0.1-0.5-0.1c-0.2,0-0.4,0-0.5,0.1
			c-0.1,0.1-0.2,0.2-0.3,0.3c-0.1,0.1-0.1,0.3-0.1,0.5v3.7c0,0.2,0,0.4,0.1,0.5c0.1,0.1,0.2,0.2,0.3,0.3c0.1,0.1,0.3,0.1,0.5,0.1
			C35.3,50.5,35.5,50.4,35.6,50.3z"/>
		<path class="st0" d="M43.2,44.2H44l1,5.7l1-5.7h0.8l-1.4,6.9h-0.9L43.2,44.2z"/>
		<path class="st0" d="M54.2,44.2H55l1.6,6.9h-0.9l-1.1-5.8l-1.1,5.8h-0.9L54.2,44.2z M53.5,48.8h2.2v0.7h-2.2V48.8z"/>
		<path class="st0" d="M63.4,51c-0.2-0.1-0.4-0.3-0.6-0.6c-0.1-0.3-0.2-0.6-0.2-1v-3.5c0-0.4,0.1-0.7,0.2-1c0.1-0.3,0.3-0.5,0.6-0.6
			c0.2-0.1,0.5-0.2,0.9-0.2c0.3,0,0.6,0.1,0.9,0.2c0.2,0.1,0.4,0.3,0.6,0.6c0.1,0.3,0.2,0.6,0.2,1v0.3h-0.8v-0.3
			c0-0.2,0-0.4-0.1-0.5c-0.1-0.2-0.2-0.3-0.3-0.3c-0.1-0.1-0.3-0.1-0.4-0.1c-0.2,0-0.3,0-0.4,0.1c-0.1,0.1-0.2,0.2-0.3,0.3
			c-0.1,0.2-0.1,0.3-0.1,0.5v3.5c0,0.2,0,0.4,0.1,0.5c0.1,0.2,0.2,0.3,0.3,0.3c0.1,0.1,0.3,0.1,0.4,0.1c0.2,0,0.3,0,0.4-0.1
			c0.1-0.1,0.2-0.2,0.3-0.3c0.1-0.1,0.1-0.3,0.1-0.5v-0.3h0.8v0.3c0,0.4-0.1,0.7-0.2,1c-0.1,0.3-0.3,0.5-0.6,0.6
			c-0.2,0.1-0.5,0.2-0.9,0.2C64,51.2,63.7,51.2,63.4,51z"/>
		<path class="st0" d="M73.4,51.2h-0.8v-6.9h0.8V51.2z"/>
		<path class="st0" d="M81,51c-0.3-0.1-0.5-0.3-0.6-0.6c-0.1-0.3-0.2-0.6-0.2-0.9v-3.6c0-0.4,0.1-0.7,0.2-0.9
			c0.1-0.3,0.3-0.5,0.6-0.6c0.3-0.1,0.6-0.2,0.9-0.2c0.4,0,0.7,0.1,0.9,0.2c0.3,0.1,0.5,0.3,0.6,0.6c0.1,0.3,0.2,0.6,0.2,0.9v3.6
			c0,0.4-0.1,0.7-0.2,0.9c-0.1,0.3-0.3,0.5-0.6,0.6c-0.3,0.1-0.6,0.2-0.9,0.2C81.6,51.2,81.3,51.2,81,51z M82.4,50.3
			c0.1-0.1,0.2-0.2,0.3-0.3c0.1-0.1,0.1-0.3,0.1-0.5v-3.7c0-0.2,0-0.4-0.1-0.5c-0.1-0.1-0.2-0.2-0.3-0.3c-0.1-0.1-0.3-0.1-0.5-0.1
			c-0.2,0-0.4,0-0.5,0.1c-0.1,0.1-0.2,0.2-0.3,0.3c-0.1,0.1-0.1,0.3-0.1,0.5v3.7c0,0.2,0,0.4,0.1,0.5c0.1,0.1,0.2,0.2,0.3,0.3
			c0.1,0.1,0.3,0.1,0.5,0.1C82.1,50.5,82.3,50.4,82.4,50.3z M81.5,43.3l1.2-1.2l0.6,0.6L82,43.8L81.5,43.3z"/>
		<path class="st0" d="M90.4,44.2h0.7l2,5.5L93,49.9v-5.6h0.8v6.9h-0.7l-2-5.4l0.1-0.1v5.5h-0.8V44.2z"/>
	</g>
	<g>
		<g>
			<g>
				<path class="st1" d="M115.4,63.4c4.1,0,7.5-3.4,7.5-7.5c0-1.9-0.7-3.7-1.9-5c-2.2-2.5-4.4-3.1-4.4-7.2c0-2.9,1-4.1,2.9-5.6
					c2-1.3,3.4-3.6,3.4-6.2l0-0.1v0v0v0v0l0-0.1c0-2.2-1-4.1-2.5-5.5c-2-2-3.8-2.9-3.8-6.6c0-3.2,1.2-4.3,3.3-5.9
					c1.8-1.4,2.9-3.5,2.9-6c0-4.1-3.4-7.5-7.5-7.5c-4.1,0-7.5,3.4-7.5,7.5c0,2.4,1.1,4.5,2.8,5.9c2.1,1.7,3.3,3.2,3.3,6.2
					c0,3.2-1.4,4.4-3.3,6.2c-1.7,1.4-2.8,3.4-2.8,5.8v0v0v0v0v0.1v0c0,2.5,1.3,4.7,3.2,6.1c1.8,1.5,2.9,3.1,2.9,5.8
					c0,3.4-1.6,4.6-3.7,6.7c-1.4,1.4-2.4,3.3-2.4,5.4C107.9,60,111.3,63.4,115.4,63.4L115.4,63.4z"/>
				<path class="st1" d="M129.5,51.3c4.1,0,7.5-3.4,7.5-7.5c0-1.9-0.7-3.7-1.9-5c-2.2-2.5-4.4-3.1-4.4-7.2c0-3.2,1.2-4.3,3.3-5.9
					c1.8-1.4,2.9-3.5,2.9-6c0-4.1-3.4-7.5-7.5-7.5c-4.1,0-7.5,3.4-7.5,7.5c0,2.4,1.1,4.5,2.8,5.9c2.1,1.7,3.3,3.2,3.3,6.2
					c0,3.4-1.6,4.6-3.7,6.7c-1.4,1.4-2.4,3.3-2.4,5.4C122,47.9,125.4,51.3,129.5,51.3L129.5,51.3z"/>
				<path class="st1" d="M143,39.3c4.1,0,7.5-3.4,7.5-7.5c0-4.1-3.4-7.5-7.5-7.5c-4.1,0-7.5,3.4-7.5,7.5
					C135.5,35.9,138.9,39.3,143,39.3L143,39.3z"/>
			</g>
		</g>
	</g>
	<g>
		<g>
			<polygon class="st0" points="20.8,15.5 20.8,12.2 5.3,12.2 5.3,36.4 9,36.4 9,26.2 19,26.2 19,22.9 9,22.9 9,15.5 			"/>
			<polygon class="st0" points="40.7,36.4 40.7,33.1 28.9,33.1 28.9,25.8 39,25.8 39,22.6 28.9,22.6 28.9,15.5 40.7,15.5 40.7,12.2 
				25.2,12.2 25.2,36.4 			"/>
			<path class="st0" d="M62.2,29.2h-3.7c-0.6,2.4-2.2,4.1-4.9,4.1c-1.4,0-2.7-0.5-3.6-1.5c-1.2-1.3-1.5-2.7-1.5-7.6
				c0-4.9,0.3-6.3,1.5-7.6c0.9-0.9,2.1-1.5,3.6-1.5c2.7,0,4.3,1.7,4.9,4.2h3.7C61.3,14.6,58,12,53.5,12c-2.5,0-4.7,0.9-6.4,2.6
				c-2.4,2.4-2.4,5.1-2.4,9.7c0,4.7,0,7.4,2.4,9.7c1.7,1.7,3.8,2.6,6.4,2.6C57.9,36.6,61.4,34,62.2,29.2z"/>
			<polygon class="st0" points="80.9,12.2 76.9,12.2 71.9,22.8 66.8,12.2 62.8,12.2 70,26.5 70,36.4 73.7,36.4 73.7,26.5 			"/>
			<polygon class="st0" points="100.5,15.5 100.5,12.2 83.4,12.2 83.4,15.5 90.1,15.5 90.1,36.4 93.8,36.4 93.8,15.5 			"/>
		</g>
	</g>
</g>
</svg>
